# xmcd CD database file
#
# Track frame offsets:
#	150
#	21795
#	37827
#	54297
#	67922
#	85527
#	112475
#	132520
#	149112
#	174590
#	199532
#	218515
#
# Disc length: 3254 seconds
#
# Revision: 1
# Processed by: cddbd v1.5.1PL0 Copyright (c) Steve Scherf et al.
# Submitted via: CDex 1.51
#
DISCID=a60cb40c
DTITLE=SION - 螢
DYEAR=1992
DGENRE=Blues
TTITLE0=螢
TTITLE1=AIN'T NOTHIN' I CAN DO
TTITLE2=当然のこと
TTITLE3=あと少し
TTITLE4=お手あげだ
TTITLE5=2月というだけの夜
TTITLE6=チェッ
TTITLE7=あっちへ行ってくれ
TTITLE8=ホラ吹き野郎
TTITLE9=早く帰ろう
TTITLE10=トタン屋根の小屋に住む老人
TTITLE11=さあ行かなきゃ
EXTD=YEAR: 1992
EXTT0=
EXTT1=
EXTT2=
EXTT3=
EXTT4=
EXTT5=
EXTT6=
EXTT7=
EXTT8=
EXTT9=
EXTT10=
EXTT11=
PLAYORDER=
